<svg width="25" height="18" viewBox="0 0 25 18" fill="none" xmlns="http://www.w3.org/2000/svg">
<g clip-path="url(#clip0_389_4)">
<path d="M20.1982 2.29565C20.1982 1.4921 20.1982 1.09032 20.3469 0.783404C20.4777 0.513432 20.6864 0.293939 20.9431 0.156382C21.2349 0 21.6171 0 22.3811 0H22.8088C23.5728 0 23.955 0 24.2468 0.156382C24.5035 0.293939 24.7122 0.513432 24.843 0.783404C24.9917 1.09032 24.9917 1.4921 24.9917 2.29565V15.7043C24.9917 16.5079 24.9917 16.9097 24.843 17.2166C24.7122 17.4866 24.5035 17.7061 24.2468 17.8436C23.955 18 23.5728 18 22.8088 18H22.3811C21.6171 18 21.2349 18 20.9431 17.8436C20.6864 17.7061 20.4777 17.4866 20.3469 17.2166C20.1982 16.9097 20.1982 16.5079 20.1982 15.7043V2.29565Z" fill="white" style="fill:white;fill-opacity:1;"/>
<path fill-rule="evenodd" clip-rule="evenodd" d="M17.1155 9C17.1155 13.9706 13.2841 18 8.55776 18C3.83143 18 0 13.9706 0 9C0 4.02943 3.83143 0 8.55776 0C13.2841 0 17.1155 4.02943 17.1155 9ZM8.55788 14.961C11.6883 14.961 14.226 12.2922 14.226 9C14.226 5.70781 11.6883 3.03896 8.55788 3.03896C5.42746 3.03896 2.88976 5.70781 2.88976 9C2.88976 12.2922 5.42746 14.961 8.55788 14.961Z" fill="white" style="fill:white;fill-opacity:1;"/>
</g>
<defs>
<clipPath id="clip0_389_4">
<rect width="25" height="18" fill="white" style="fill:white;fill-opacity:1;"/>
</clipPath>
</defs>
</svg>
